<?xml version="1.0" encoding="UTF-8"?>
<svg width="64" height="64" viewBox="0 0 64 64" fill="none" xmlns="http://www.w3.org/2000/svg">
  <rect width="64" height="64" rx="12" fill="#F9FAFB"/>
  <path d="M32 12C29.8783 12 27.8434 12.8429 26.3431 14.3431C24.8429 15.8434 24 17.8783 24 20V28.5858L23.5858 29C22.2071 30.3787 21.1056 31.9989 20.3463 33.7814C19.587 35.5639 19.1821 37.4759 19.1522 39.4123C19.1224 41.3487 19.4682 43.2731 20.1702 45.0795C20.8722 46.8859 21.9204 48.5407 23.2574 49.9598C24.5943 51.3789 26.2022 52.5227 27.9804 53.3245C29.7586 54.1264 31.6729 54.5702 33.6093 54.6284C35.5457 54.6866 37.4803 54.3581 39.3 53.6624C41.1197 52.9667 42.7978 51.9183 44.2 50.5858C44.3905 50.3953 44.5276 50.1593 44.5979 49.9005C44.6683 49.6417 44.6696 49.3684 44.6018 49.1089C44.5339 48.8494 44.399 48.6119 44.2103 48.4193C44.0215 48.2267 43.7855 48.0855 43.5272 48.0111C43.2689 47.9367 42.9956 47.9315 42.7348 47.9959C42.474 48.0603 42.2343 48.192 42.0387 48.3782C40.9642 49.4527 39.6551 50.2823 38.2147 50.8112C36.7743 51.3401 35.2348 51.5559 33.7055 51.4432C32.1762 51.3305 30.6909 50.8918 29.3452 50.1583C28.0 49.4248 26.8267 48.4143 25.9133 47.1992C25 45.9841 24.3694 44.5932 24.0649 43.1188C23.7604 41.6444 23.7892 40.1206 24.1493 38.6591C24.5094 37.1976 25.1922 35.8329 26.1513 34.6557C27.1104 33.4785 28.3214 32.5171 29.7 31.8358C30.0982 31.6401 30.4359 31.3372 30.6742 30.9628C30.9125 30.5884 31.0422 30.1582 31.0482 29.7172C31.0542 29.2762 30.9362 28.8426 30.7079 28.4618C30.4796 28.081 30.1501 27.7689 29.7572 27.5628C29.3642 27.3567 28.9225 27.2602 28.4818 27.2842C28.0411 27.3082 27.6142 27.4518 27.2482 27.6998C25.3482 28.9998 23.7482 30.6998 22.6482 32.6998C21.5482 34.6998 20.9482 36.9998 20.9482 39.2998C20.9482 41.5998 21.5482 43.7998 22.6482 45.7998C23.7482 47.7998 25.3482 49.4998 27.2482 50.7998C29.1482 52.0998 31.3482 52.7998 33.6482 52.7998C35.9482 52.7998 38.1482 52.0998 40.0482 50.7998C41.9482 49.4998 43.5482 47.7998 44.6482 45.7998C45.7482 43.7998 46.3482 41.5998 46.3482 39.2998C46.3482 36.9998 45.7482 34.6998 44.6482 32.6998C43.5482 30.6998 41.9482 28.9998 40.0482 27.6998C39.6822 27.4518 39.2553 27.3082 38.8146 27.2842C38.3739 27.2602 37.9322 27.3567 37.5392 27.5628C37.1463 27.7689 36.8168 28.081 36.5885 28.4618C36.3602 28.8426 36.2422 29.2762 36.2482 29.7172C36.2542 30.1582 36.3839 30.5884 36.6222 30.9628C36.8605 31.3372 37.1982 31.6401 37.5964 31.8358C38.975 32.5171 40.186 33.4785 41.1451 34.6557C42.1042 35.8329 42.787 37.1976 43.1471 38.6591C43.5072 40.1206 43.536 41.6444 43.2315 43.1188C42.927 44.5932 42.2964 45.9841 41.3831 47.1992C40.4697 48.4143 39.2964 49.4248 37.9512 50.1583C36.6055 50.8918 35.1202 51.3305 33.5909 51.4432C32.0616 51.5559 30.5221 51.3401 29.0817 50.8112C27.6413 50.2823 26.3322 49.4527 25.2577 48.3782C25.0621 48.192 24.8224 48.0603 24.5616 47.9959C24.3008 47.9315 24.0275 47.9367 23.7692 48.0111C23.5109 48.0855 23.2749 48.2267 23.0861 48.4193C22.8974 48.6119 22.7625 48.8494 22.6946 49.1089C22.6268 49.3684 22.6281 49.6417 22.6985 49.9005C22.7688 50.1593 22.9059 50.3953 23.0964 50.5858C24.4986 51.9183 26.1767 52.9667 27.9964 53.6624C29.8161 54.3581 31.7507 54.6866 33.6871 54.6284C35.6235 54.5702 37.5378 54.1264 39.316 53.3245C41.0942 52.5227 42.7021 51.3789 44.039 49.9598C45.376 48.5407 46.4242 46.8859 47.1262 45.0795C47.8282 43.2731 48.174 41.3487 48.1442 39.4123C48.1143 37.4759 47.7094 35.5639 46.9501 33.7814C46.1908 31.9989 45.0893 30.3787 43.7106 29L43.2964 28.5858V20C43.2964 17.8783 42.4535 15.8434 40.9533 14.3431C39.453 12.8429 37.4181 12 35.2964 12H32Z" fill="#6366F1"/>
  <path d="M26 52C26 54.2091 28.6863 56 32 56C35.3137 56 38 54.2091 38 52H26Z" fill="#6366F1"/>
</svg>
